HIERARCHY
ROOT root
{
	OFFSET 0.000000 0.000000 0.000000
	CHANNELS 6 Xposition Yposition Zposition Zrotation Yrotation Xrotation
	JOINT lhip
	{
		OFFSET 0.058581 -0.082280 -0.017664
		CHANNELS 3 Zrotation Yrotation Xrotation
		JOINT lknee
		{
			OFFSET 0.043451 -0.386469 0.008037
			CHANNELS 3 Zrotation Yrotation Xrotation
			JOINT lankle
			{
				OFFSET -0.014790 -0.426874 -0.037428
				CHANNELS 3 Zrotation Yrotation Xrotation
				JOINT ltoe
				{
					OFFSET 0.041054 -0.060286 0.122042
					CHANNELS 3 Zrotation Yrotation Xrotation
					End Site
					{
						OFFSET 0.000000 0.000000 0.000000
					}
				}
			}
		}
	}
	JOINT rhip
	{
		OFFSET -0.060310 -0.090513 -0.013543
		CHANNELS 3 Zrotation Yrotation Xrotation
		JOINT rknee
		{
			OFFSET -0.043257 -0.383688 -0.004843
			CHANNELS 3 Zrotation Yrotation Xrotation
			JOINT rankle
			{
				OFFSET 0.019056 -0.420046 -0.034562
				CHANNELS 3 Zrotation Yrotation Xrotation
				JOINT rtoe
				{
					OFFSET -0.034840 -0.062106 0.130323
					CHANNELS 3 Zrotation Yrotation Xrotation
					End Site
					{
						OFFSET 0.000000 0.000000 0.000000
					}
				}
			}
		}
	}
	JOINT lowerback
	{
		OFFSET 0.004439 0.124404 -0.038385
		CHANNELS 3 Zrotation Yrotation Xrotation
		JOINT upperback
		{
			OFFSET 0.004488 0.137956 0.026820
			CHANNELS 3 Zrotation Yrotation Xrotation
			JOINT chest
			{
				OFFSET -0.002265 0.056032 0.002855
				CHANNELS 3 Zrotation Yrotation Xrotation
				JOINT lowerneck
				{
					OFFSET -0.013390 0.211636 -0.033468
					CHANNELS 3 Zrotation Yrotation Xrotation
					JOINT upperneck
					{
						OFFSET 0.010113 0.088937 0.050410
						CHANNELS 3 Zrotation Yrotation Xrotation
						End Site
						{
							OFFSET 0.000000 0.000000 0.000000
						}
					}
				}
				JOINT lclavicle
				{
					OFFSET 0.071702 0.114000 -0.018898
					CHANNELS 3 Zrotation Yrotation Xrotation
					JOINT lshoulder
					{
						OFFSET 0.122921 0.045205 -0.019046
						CHANNELS 3 Zrotation Yrotation Xrotation
						JOINT lelbow
						{
							OFFSET 0.255332 -0.015649 -0.022946
							CHANNELS 3 Zrotation Yrotation Xrotation
							JOINT lwrist
							{
								OFFSET 0.265709 0.012698 -0.007375
								CHANNELS 3 Zrotation Yrotation Xrotation
								End Site
								{
									OFFSET 0.000000 0.000000 0.000000
								}
							}
						}
					}
				}
				JOINT rclavicle
				{
					OFFSET -0.082954 0.112472 -0.023707
					CHANNELS 3 Zrotation Yrotation Xrotation
					JOINT rshoulder
					{
						OFFSET -0.113228 0.046853 -0.008472
						CHANNELS 3 Zrotation Yrotation Xrotation
						JOINT relbow
						{
							OFFSET -0.260127 -0.014369 -0.031269
							CHANNELS 3 Zrotation Yrotation Xrotation
							JOINT rwrist
							{
								OFFSET -0.269108 0.006794 -0.006027
								CHANNELS 3 Zrotation Yrotation Xrotation
								End Site
								{
									OFFSET 0.000000 0.000000 0.000000
								}
							}
						}
					}
				}
			}
		}
	}
}
MOTION
Frames: 7
Frame Time: 0.033333
-0.370432 2.925775 0.995768 -0.753640 0.727451 85.692047 2.511317 6.242400 11.676678 -3.270200 1.509952 -4.982751 3.608454 13.576382 -11.213572 0.000000 -0.000000 0.000000 -1.292048 -4.760902 0.012713 2.561472 -7.580901 14.758098 2.555592 -8.437531 -9.596743 0.000000 -0.000000 0.000000 1.266967 -1.327855 1.627155 0.570829 -2.359530 10.704860 -1.360377 -2.100027 -1.483756 4.024160 -4.560458 1.435772 3.385690 -7.078559 -0.768416 -31.889188 1.488683 3.820261 -57.627338 -4.421789 7.987016 15.257266 -32.560952 -1.004107 -5.127490 -6.974765 4.816092 27.545792 4.926544 3.790416 59.578403 4.282555 11.260372 -14.233819 26.139871 -5.654664 4.395601 7.983517 -2.738394 
-0.370374 2.925454 0.995737 -0.765450 0.673874 85.752805 2.427550 6.180135 11.672783 -3.263446 1.372257 -5.051324 3.774695 13.794263 -11.154970 0.000000 -0.000000 0.000000 -1.327777 -4.524282 0.051065 2.699031 -7.183773 14.603617 3.153405 -9.103549 -9.653822 0.000000 -0.000000 0.000000 1.181488 -1.242620 1.535349 0.591244 -2.410942 10.726842 -1.324828 -2.092730 -1.474139 3.926680 -4.658065 1.269232 3.416047 -6.905531 -0.610511 -31.842311 1.553629 3.893577 -57.736090 -4.558700 8.223321 15.337774 -32.537589 -0.910449 -4.961143 -6.820923 4.540119 27.393253 4.948743 3.783634 59.754188 4.250016 11.481709 -14.400175 26.195441 -5.672062 4.429834 7.908311 -2.983556 
-0.370368 2.925018 0.995732 -0.726154 0.670700 85.747589 2.433219 6.193692 11.728405 -3.264671 1.327628 -5.107691 3.774989 13.791012 -11.143230 0.000000 -0.000000 0.000000 -1.325251 -4.516167 0.108201 2.694922 -7.184847 14.552549 3.164478 -9.147012 -9.668868 0.000000 -0.000000 0.000000 1.169120 -1.246800 1.543505 0.585671 -2.405099 10.678039 -1.314309 -2.099255 -1.453037 3.933737 -4.654571 1.217319 3.410037 -6.892272 -0.576353 -31.839083 1.531787 3.884159 -57.759020 -4.629778 8.227457 15.258521 -32.425452 -0.765455 -4.819746 -6.783296 4.449538 27.380246 4.944989 3.779818 59.773027 4.279818 11.510674 -14.362804 26.184134 -5.630557 4.356232 7.897961 -3.023945 
-0.370379 2.924612 0.995735 -0.694987 0.670937 85.769037 2.424177 6.180645 11.748266 -3.251118 1.324673 -5.142691 3.768096 13.787894 -11.146445 0.000000 -0.000000 0.000000 -1.320486 -4.508904 0.129093 2.691090 -7.198374 14.519310 3.172210 -9.164373 -9.666385 0.000000 -0.000000 0.000000 1.164647 -1.242151 1.549763 0.573149 -2.391720 10.644452 -1.311147 -2.102695 -1.465301 3.928730 -4.638905 1.167162 3.434619 -6.875817 -0.592280 -31.831273 1.499036 3.887158 -57.769308 -4.637084 8.228004 15.227488 -32.410942 -0.779230 -4.859698 -6.768780 4.394361 27.373832 4.972831 3.785017 59.804481 4.287732 11.526710 -14.363070 26.197546 -5.634907 4.364625 7.886351 -3.046763 
-0.370402 2.924371 0.995742 -0.692431 0.667282 85.786445 2.412691 6.177491 11.749660 -3.242139 1.331049 -5.147720 3.774489 13.790565 -11.158094 0.000000 -0.000000 0.000000 -1.321411 -4.506235 0.129191 2.689360 -7.198863 14.508188 3.176698 -9.167829 -9.665418 0.000000 -0.000000 0.000000 1.155898 -1.227885 1.529751 0.568828 -2.380264 10.654809 -1.312950 -2.097263 -1.480399 3.942594 -4.659543 1.149728 3.439746 -6.906724 -0.576825 -31.826192 1.477010 3.891178 -57.773406 -4.651005 8.227549 15.226875 -32.407442 -0.810611 -4.880557 -6.762259 4.403866 27.365806 4.994289 3.796339 59.830197 4.295279 11.532493 -14.375059 26.203890 -5.639984 4.378233 7.879309 -3.053137 
-0.370402 2.924081 0.995736 -0.672025 0.664844 85.808311 2.405718 6.165158 11.738725 -3.237720 1.330144 -5.135585 3.778558 13.784193 -11.177611 0.000000 -0.000000 0.000000 -1.327925 -4.506562 0.131649 2.696276 -7.199102 14.500690 3.178481 -9.175692 -9.675963 0.000000 -0.000000 0.000000 1.154092 -1.222196 1.534689 0.556336 -2.372014 10.630623 -1.318558 -2.094589 -1.491662 3.952516 -4.692815 1.124569 3.439043 -6.938171 -0.549902 -31.824420 1.463453 3.900388 -57.768567 -4.665107 8.228309 15.223436 -32.423450 -0.803714 -4.873497 -6.761664 4.389928 27.354064 5.009299 3.800768 59.858543 4.305111 11.547496 -14.371244 26.214453 -5.612837 4.377535 7.869057 -3.068458 
-0.370467 2.923801 0.995715 -0.685204 0.672694 85.850867 2.416949 6.168187 11.721380 -3.245963 1.348073 -5.147324 3.774921 13.775685 -11.186262 0.000000 -0.000000 0.000000 -1.316542 -4.566137 0.085364 2.688989 -7.170702 14.529498 3.189136 -9.133331 -9.690403 0.000000 -0.000000 0.000000 1.159915 -1.185732 1.497960 0.552324 -2.374215 10.650094 -1.332610 -2.091791 -1.520367 3.954596 -4.699902 1.119845 3.439659 -6.958826 -0.580854 -31.833672 1.445550 3.889830 -57.743567 -4.659739 8.242393 15.219227 -32.430086 -0.823378 -4.846319 -6.769934 4.406006 27.361658 5.025922 3.802359 59.866831 4.320553 11.549455 -14.369420 26.216834 -5.623398 4.365399 7.875250 -3.045819 
